<svg xmlns="http://www.w3.org/2000/svg" width="96" height="96" viewBox="0 0 96 96" version="1.1"><path d="M 23.615 14.088 C 19.906 17.006, 18.238 20.674, 16.879 28.900 C 15.825 35.283, 15.477 36, 13.425 36 C 10.503 36, 7.973 38.527, 8.096 41.321 C 8.351 47.107, 10.562 53.485, 12.438 53.846 C 15.424 54.421, 16.920 51.562, 15.910 47.214 C 15.436 45.171, 15.037 43.163, 15.024 42.750 C 15.011 42.337, 29.878 42, 48.062 42 L 81.123 42 80.554 45.750 C 80.241 47.813, 79.500 51.890, 78.909 54.811 C 77.612 61.212, 78.207 63.252, 81.246 62.820 C 83.502 62.500, 84.401 59.626, 87.628 42.424 C 88.306 38.810, 86.101 36, 82.589 36 C 80.557 36, 80.186 35.243, 79.039 28.750 C 77.542 20.277, 76.036 16.960, 72.385 14.088 C 69.878 12.116, 68.522 12, 48 12 C 27.478 12, 26.122 12.116, 23.615 14.088 M 28.303 19.197 C 25.807 20.403, 24.340 23.953, 23.395 31.081 L 22.742 36 48 36 L 73.258 36 72.605 31.081 C 71.630 23.733, 70.180 20.403, 67.403 19.138 C 64.180 17.669, 31.362 17.719, 28.303 19.197 M 26.419 49.351 C 25.689 51.252, 27.894 70.221, 28.975 71.344 C 29.422 71.808, 30.623 72.018, 31.644 71.810 C 33.279 71.478, 33.465 70.578, 33.206 64.266 C 32.716 52.291, 31.788 48.548, 29.222 48.180 C 27.932 47.995, 26.750 48.488, 26.419 49.351 M 39.459 49.247 C 39.166 50.011, 39.055 55.330, 39.213 61.068 C 39.499 71.452, 39.511 71.500, 42 71.500 L 44.500 71.500 44.500 60 C 44.500 48.829, 44.436 48.491, 42.246 48.180 C 40.996 48.002, 39.754 48.478, 39.459 49.247 M 51.459 49.247 C 51.166 50.011, 51.055 55.330, 51.213 61.068 C 51.499 71.452, 51.511 71.500, 54 71.500 L 56.500 71.500 56.500 60 C 56.500 48.829, 56.436 48.491, 54.246 48.180 C 52.996 48.002, 51.754 48.478, 51.459 49.247 M 64.691 48.693 C 63.795 50.144, 61.832 69.120, 62.419 70.649 C 62.750 71.512, 63.932 72.005, 65.222 71.820 C 67.791 71.451, 68.717 67.705, 69.206 55.701 C 69.480 48.981, 69.356 48.479, 67.344 48.193 C 66.159 48.024, 64.965 48.249, 64.691 48.693 M 13.108 57.912 C 12.049 58.582, 11.881 60.080, 12.406 64.147 C 13.582 73.254, 15.052 77.252, 18.490 80.690 L 21.800 84 46.666 84 C 68.838 84, 71.900 83.802, 74.938 82.173 C 81.356 78.731, 84.443 68.500, 79.064 68.500 C 77.161 68.500, 76.445 69.203, 75.797 71.705 C 74.240 77.711, 72.975 78, 48.212 78 C 35.654 78, 25.073 77.574, 24.052 77.028 C 21.842 75.845, 21.281 74.459, 19.404 65.540 C 17.744 57.651, 16.294 55.895, 13.108 57.912" stroke="none" fill="#fcfafa" fill-rule="evenodd"/><path d="M 18.038 48.750 C 18.116 54.369, 22.838 76.282, 24.150 77.114 C 24.892 77.584, 35.637 77.976, 48.027 77.985 C 72.996 78.002, 74.238 77.721, 75.797 71.705 C 76.445 69.203, 77.161 68.500, 79.064 68.500 C 84.443 68.500, 81.356 78.731, 74.938 82.173 C 71.918 83.792, 68.888 84, 48.266 84 C 34.636 84, 25 84.384, 25 84.927 C 25 85.438, 26.186 86.788, 27.635 87.927 C 30.143 89.901, 31.487 90, 55.670 90 C 83.376 90, 84.635 89.766, 86.895 84.201 C 88.047 81.365, 93.989 50.811, 93.996 47.690 C 93.999 46.214, 93.320 45.937, 90.323 46.190 L 86.645 46.500 85.073 54.500 C 83.702 61.471, 83.210 62.541, 81.246 62.820 C 78.039 63.276, 77.617 61.175, 79.286 53.062 L 80.739 46 49.370 46 L 18 46 18.038 48.750 M 26.419 49.351 C 25.689 51.252, 27.894 70.221, 28.975 71.344 C 29.422 71.808, 30.623 72.018, 31.644 71.810 C 33.279 71.478, 33.465 70.578, 33.206 64.266 C 32.716 52.291, 31.788 48.548, 29.222 48.180 C 27.932 47.995, 26.750 48.488, 26.419 49.351 M 39.459 49.247 C 39.166 50.011, 39.055 55.330, 39.213 61.068 C 39.499 71.452, 39.511 71.500, 42 71.500 L 44.500 71.500 44.500 60 C 44.500 48.829, 44.436 48.491, 42.246 48.180 C 40.996 48.002, 39.754 48.478, 39.459 49.247 M 51.459 49.247 C 51.166 50.011, 51.055 55.330, 51.213 61.068 C 51.499 71.452, 51.511 71.500, 54 71.500 L 56.500 71.500 56.500 60 C 56.500 48.829, 56.436 48.491, 54.246 48.180 C 52.996 48.002, 51.754 48.478, 51.459 49.247 M 64.691 48.693 C 63.795 50.144, 61.832 69.120, 62.419 70.649 C 62.750 71.512, 63.932 72.005, 65.222 71.820 C 67.791 71.451, 68.717 67.705, 69.206 55.701 C 69.480 48.981, 69.356 48.479, 67.344 48.193 C 66.159 48.024, 64.965 48.249, 64.691 48.693" stroke="none" fill="#fc652e" fill-rule="evenodd"/></svg>