<svg xmlns="http://www.w3.org/2000/svg" width="512" height="512" viewBox="0 0 512 512" version="1.1"><path d="M 96.750 77.748 C 106.237 77.913, 121.762 77.913, 131.250 77.748 C 140.738 77.584, 132.975 77.450, 114 77.450 C 95.025 77.450, 87.262 77.584, 96.750 77.748 M 241.250 77.750 C 276.313 77.896, 333.688 77.896, 368.750 77.750 C 403.813 77.604, 375.125 77.485, 305 77.485 C 234.875 77.485, 206.188 77.604, 241.250 77.750 M 175.250 93.750 C 219.663 93.894, 292.338 93.894, 336.750 93.750 C 381.163 93.606, 344.825 93.488, 256 93.488 C 167.175 93.488, 130.838 93.606, 175.250 93.750 M 96.465 108.952 C 91.998 110.762, 91.833 111.705, 88.525 154.265 C 86.762 176.944, 85.478 195.693, 85.671 195.928 C 85.864 196.163, 87.705 195.419, 89.761 194.274 C 95.135 191.283, 103.498 189.026, 109.932 188.832 C 113.811 188.715, 114.428 188.549, 111.968 188.285 L 108.436 187.905 111.191 151.703 C 112.706 131.791, 114.203 114.042, 114.516 112.260 L 115.087 109.020 160.293 108.750 L 205.500 108.479 152 108.303 C 122.575 108.206, 97.584 108.498, 96.465 108.952 M 222 108.483 C 222 108.749, 223.674 112.349, 225.719 116.483 L 229.439 124 256 124 L 282.561 124 286.281 116.483 C 288.326 112.349, 290 108.749, 290 108.483 C 290 108.218, 274.700 108, 256 108 C 237.300 108, 222 108.218, 222 108.483 M 333.179 108.749 C 347.853 108.905, 372.153 108.905, 387.179 108.749 C 402.206 108.594, 390.200 108.466, 360.500 108.466 C 330.800 108.466, 318.506 108.593, 333.179 108.749 M 420.232 119 C 420.232 120.925, 420.438 121.713, 420.689 120.750 C 420.941 119.787, 420.941 118.213, 420.689 117.250 C 420.438 116.287, 420.232 117.075, 420.232 119 M 421.252 131.500 C 421.263 133.700, 421.468 134.482, 421.707 133.238 C 421.946 131.994, 421.937 130.194, 421.687 129.238 C 421.437 128.282, 421.241 129.300, 421.252 131.500 M 239.250 139.748 C 248.463 139.913, 263.538 139.913, 272.750 139.748 C 281.962 139.583, 274.425 139.448, 256 139.448 C 237.575 139.448, 230.037 139.583, 239.250 139.748 M 422.252 144.500 C 422.263 146.700, 422.468 147.482, 422.707 146.238 C 422.946 144.994, 422.937 143.194, 422.687 142.238 C 422.437 141.282, 422.241 142.300, 422.252 144.500 M 423.252 157.500 C 423.263 159.700, 423.468 160.482, 423.707 159.238 C 423.946 157.994, 423.937 156.194, 423.687 155.238 C 423.437 154.282, 423.241 155.300, 423.252 157.500 M 424.252 170.500 C 424.263 172.700, 424.468 173.482, 424.707 172.238 C 424.946 170.994, 424.937 169.194, 424.687 168.238 C 424.437 167.282, 424.241 168.300, 424.252 170.500 M 425.252 183.500 C 425.263 185.700, 425.468 186.482, 425.707 185.238 C 425.946 183.994, 425.937 182.194, 425.687 181.238 C 425.437 180.282, 425.241 181.300, 425.252 183.500 M 253.750 188.706 C 254.988 188.944, 257.012 188.944, 258.250 188.706 C 259.488 188.467, 258.475 188.272, 256 188.272 C 253.525 188.272, 252.512 188.467, 253.750 188.706 M 398.750 188.706 C 399.988 188.944, 402.012 188.944, 403.250 188.706 C 404.488 188.467, 403.475 188.272, 401 188.272 C 398.525 188.272, 397.512 188.467, 398.750 188.706 M 146.958 205.250 C 151.102 209.665, 152 210.459, 152 209.708 C 152 209.548, 149.863 207.410, 147.250 204.958 L 142.500 200.500 146.958 205.250 M 364 205.500 C 361.571 207.975, 359.809 210, 360.084 210 C 360.359 210, 362.571 207.975, 365 205.500 C 367.429 203.025, 369.191 201, 368.916 201 C 368.641 201, 366.429 203.025, 364 205.500 M 218.453 206.250 L 214.500 210.500 218.750 206.547 C 221.088 204.373, 223 202.460, 223 202.297 C 223 201.540, 222.129 202.298, 218.453 206.250 M 292 205.500 C 293.866 207.425, 295.617 209, 295.892 209 C 296.167 209, 294.866 207.425, 293 205.500 C 291.134 203.575, 289.383 202, 289.108 202 C 288.833 202, 290.134 203.575, 292 205.500 M 50 237.441 C 50 238.784, 50.369 240.110, 50.819 240.388 C 51.270 240.667, 51.443 239.568, 51.206 237.947 C 50.681 234.373, 50 234.087, 50 237.441 M 460.881 237.781 C 460.552 239.769, 460.698 240.702, 461.253 240.147 C 461.757 239.643, 462.002 238.166, 461.797 236.865 C 461.482 234.864, 461.342 235.004, 460.881 237.781 M 138.250 325.750 C 203.012 325.892, 308.987 325.892, 373.750 325.750 C 438.512 325.608, 385.525 325.492, 256 325.492 C 126.475 325.492, 73.487 325.608, 138.250 325.750 M 47.463 343.250 C 47.738 344.488, 50.240 361.700, 53.023 381.500 C 58.636 421.439, 59.371 424.012, 66.784 429.666 C 73.245 434.594, 77.704 435.064, 115 434.752 L 148.500 434.472 114.250 434.236 C 95.412 434.106, 80 433.848, 80 433.662 C 80 433.476, 77.975 419.228, 75.500 402 C 73.025 384.772, 71 369.279, 71 367.572 C 71 362.593, 74.157 357.752, 79.036 355.250 L 83.424 353 272.212 353 C 451.304 353, 461.005 353.090, 461.102 354.750 C 461.221 356.777, 462.552 351.474, 463.483 345.266 L 464.123 341 255.542 341 L 46.962 341 47.463 343.250 M 165.437 410.250 L 162.500 413.500 165.750 410.563 C 167.537 408.948, 169 407.485, 169 407.313 C 169 406.540, 168.175 407.221, 165.437 410.250 M 233.750 434.749 C 244.888 434.910, 263.113 434.910, 274.250 434.749 C 285.388 434.588, 276.275 434.456, 254 434.456 C 231.725 434.456, 222.613 434.588, 233.750 434.749 M 367.250 434.742 C 370.962 434.934, 377.038 434.934, 380.750 434.742 C 384.462 434.549, 381.425 434.392, 374 434.392 C 366.575 434.392, 363.538 434.549, 367.250 434.742 M 418.776 434.733 C 421.128 434.945, 424.728 434.942, 426.776 434.727 C 428.824 434.512, 426.900 434.339, 422.500 434.343 C 418.100 434.346, 416.424 434.522, 418.776 434.733" stroke="none" fill="#d28e43" fill-rule="evenodd"/><path d="M 153.659 71.957 C 152.497 77.763, 150.897 77.998, 112.300 78.022 C 80.794 78.042, 77.121 78.216, 73.500 79.866 C 68.641 82.079, 62.635 88.522, 61.147 93.119 C 60.545 94.979, 58.028 127.325, 55.554 165 C 53.080 202.675, 50.867 235.470, 50.636 237.877 C 50.226 242.160, 50.323 242.055, 55.088 233.034 C 57.766 227.962, 61.955 221.014, 64.396 217.593 L 68.834 211.374 72.406 163.937 C 74.371 137.847, 76.451 114.250, 77.028 111.500 C 78.403 104.949, 82.275 99.511, 87.930 96.187 L 92.500 93.500 256 93.500 C 409.885 93.500, 419.688 93.603, 422.703 95.252 C 428.225 98.271, 432.940 103.965, 434.442 109.428 C 435.209 112.218, 437.484 136.293, 439.496 162.930 L 443.155 211.359 447.599 217.586 C 450.042 221.011, 454.234 227.962, 456.912 233.034 C 461.677 242.055, 461.774 242.160, 461.364 237.877 C 461.133 235.470, 458.929 202.936, 456.465 165.579 C 454.001 128.223, 451.514 95.910, 450.939 93.773 C 449.614 88.852, 443.690 82.230, 438.500 79.866 C 434.698 78.134, 428.150 78.042, 306.500 78.007 C 206.322 77.978, 177.957 77.699, 176 76.723 C 174.625 76.038, 172.856 74.019, 172.070 72.238 L 170.639 69 162.445 69 L 154.250 69 153.659 71.957 M 114.518 112.250 C 114.203 114.037, 112.711 131.736, 111.201 151.580 L 108.455 187.659 116.058 188.767 C 125.235 190.105, 132.424 193.184, 140.690 199.315 C 155.901 210.600, 170.831 235.023, 180.477 264.401 L 183.728 274.301 184.946 269.225 C 185.616 266.433, 188.575 258.206, 191.523 250.944 C 206.356 214.394, 226.072 193.114, 248.906 189.007 C 265.738 185.981, 283.494 193.985, 297.620 210.967 C 303.336 217.838, 304.590 222.560, 301.592 225.921 C 300.363 227.299, 300.694 228.424, 304.185 234.750 C 307.871 241.430, 308.440 242, 311.418 242 C 313.491 242, 315.420 242.819, 316.794 244.281 C 318.931 246.555, 326.100 264.403, 327.505 270.943 C 328.212 274.238, 328.385 273.956, 331.509 264.443 C 351.071 204.865, 386.293 176.460, 420.250 192.878 C 423.412 194.407, 426.003 195.173, 426.008 194.579 C 426.012 193.986, 424.626 175.500, 422.927 153.500 C 420.081 116.636, 419.675 113.324, 417.745 111.250 L 415.651 109 361.576 109.004 L 307.500 109.008 300.281 123.329 C 294.936 133.935, 292.394 137.955, 290.484 138.825 C 288.682 139.647, 278.306 140, 256 140 C 233.694 140, 223.318 139.647, 221.516 138.825 C 219.606 137.955, 217.064 133.935, 211.719 123.329 L 204.500 109.008 159.795 109.004 L 115.091 109 114.518 112.250 M 21.354 310.692 C 15.835 311.772, 13.668 319.693, 17.944 323.156 C 20.143 324.936, 28.368 325, 256.538 325 L 492.855 325 494.927 322.365 C 497.749 318.778, 497.533 316.379, 494.077 312.923 L 491.154 310 257.327 310.136 C 128.722 310.211, 22.534 310.461, 21.354 310.692 M 79.036 355.250 C 74.157 357.752, 71 362.593, 71 367.572 C 71 369.279, 73.025 384.772, 75.500 402 C 77.975 419.228, 80 433.476, 80 433.662 C 80 433.848, 95.734 434, 114.965 434 L 149.930 434 153.399 430.955 C 155.784 428.860, 157.515 425.962, 158.943 421.671 C 162.744 410.249, 170.272 404.067, 180.434 404.022 C 190.484 403.977, 198.289 410.348, 202.057 421.671 C 203.485 425.962, 205.216 428.860, 207.601 430.955 L 211.070 434 253.285 433.996 C 293.322 433.993, 295.664 433.892, 298.686 432.050 C 302.273 429.863, 303.526 427.894, 305.495 421.349 C 310.607 404.366, 330.158 398.240, 342.342 409.803 C 345.474 412.776, 349 419.002, 349 421.559 C 349 424.716, 352.368 430.253, 355.420 432.114 C 358.048 433.717, 360.569 433.993, 372.615 433.996 C 385.259 434, 386.998 434.211, 389.298 436.020 C 390.711 437.131, 392.009 439.043, 392.183 440.270 C 392.478 442.342, 393.082 442.521, 400.721 442.790 C 408.805 443.075, 408.953 443.037, 409.583 440.524 C 410.808 435.646, 414.360 434, 423.667 434 C 428.988 434, 433.426 433.432, 435.782 432.449 C 440.030 430.677, 445.522 425.737, 447.554 421.860 C 448.825 419.435, 461 358.638, 461 354.716 C 461 353.101, 449.919 353, 272.212 353 L 83.424 353 79.036 355.250" stroke="none" fill="#e5aa5c" fill-rule="evenodd"/><path d="M 104 204.935 C 87.734 209.901, 72.402 229.477, 60.089 261 C 55.633 272.408, 50.002 290.687, 50.001 293.750 C 50 294.673, 52.839 295, 60.863 295 L 71.727 295 72.999 288.750 C 75.159 278.135, 83.609 253.580, 88.819 242.780 C 95.198 229.554, 102.311 219.026, 109.932 211.531 C 113.269 208.249, 116 205.211, 116 204.781 C 116 203.801, 107.351 203.912, 104 204.935 M 246.324 205.854 C 231.856 210.853, 216.616 230.098, 206.085 256.665 C 201.736 267.635, 196.650 284.067, 195.534 290.750 L 194.824 295 205.678 295 L 216.532 295 218.737 285.750 C 223.568 265.487, 232.661 242.629, 241.592 228.300 C 244.263 224.015, 249.722 217.082, 253.724 212.893 C 257.726 208.705, 261 204.990, 261 204.639 C 261 203.327, 251.316 204.129, 246.324 205.854 M 391.423 205.820 C 373.362 212.064, 355.748 238.132, 344.678 275 C 342.778 281.325, 340.910 288.413, 340.524 290.750 L 339.824 295 350.742 295 L 361.659 295 363.420 286.750 C 369.568 257.945, 384.831 226.397, 399.818 211.515 C 403.127 208.229, 405.620 205.194, 405.358 204.770 C 404.521 203.416, 396.667 204.008, 391.423 205.820 M 136 216.500 C 137.866 218.425, 139.617 220, 139.892 220 C 140.167 220, 138.866 218.425, 137 216.500 C 135.134 214.575, 133.383 213, 133.108 213 C 132.833 213, 134.134 214.575, 136 216.500" stroke="none" fill="#cedada" fill-rule="evenodd"/><path d="M 109.308 212.250 C 97.715 224.207, 88.118 241.127, 80.522 263 C 77.031 273.053, 72.028 291.124, 72.009 293.750 C 72.002 294.733, 82.662 295, 122 295 C 161.334 295, 172 294.733, 171.998 293.750 C 171.998 293.063, 170.656 287.499, 169.018 281.386 C 161.413 253.020, 148.931 228.804, 135.174 215.727 C 129.831 210.649, 120.536 205.038, 117.419 205.010 C 116.824 205.004, 113.175 208.262, 109.308 212.250 M 254.310 212.250 C 243.629 223.267, 236.267 235.446, 228.513 254.921 C 224.438 265.156, 218.678 283.961, 217.538 290.750 L 216.824 295 266.957 295 L 317.091 295 316.419 291.250 C 315.452 285.854, 309.272 265.551, 306.426 258.422 C 303.507 251.107, 303.340 246.660, 305.889 244.111 C 307.741 242.259, 307.705 242.088, 304.052 235.361 C 300.406 228.648, 300.247 228.507, 296.699 228.824 C 293.290 229.129, 292.515 228.578, 283.752 219.628 C 277.216 212.952, 272.798 209.348, 268.965 207.564 C 265.959 206.164, 263.014 205.015, 262.419 205.010 C 261.824 205.004, 258.175 208.262, 254.310 212.250 M 400.063 211.250 C 385.435 225.860, 372.523 251.425, 364.925 280.818 C 363.316 287.042, 362 292.780, 362 293.568 C 362 294.792, 369.271 295, 412 295 C 439.500 295, 462 294.628, 462 294.173 C 462 291.252, 455.067 269.582, 450.854 259.335 C 439.773 232.386, 424.465 212.270, 410.640 206.494 C 408.673 205.672, 406.897 205, 406.692 205 C 406.487 205, 403.504 207.813, 400.063 211.250" stroke="none" fill="#e7f5f5" fill-rule="evenodd"/><path d="M 72.929 63.367 C 58.755 67.189, 47.434 79.811, 44.948 94.563 C 44.397 97.828, 41.261 141.900, 37.978 192.500 C 34.695 243.100, 31.750 286.863, 31.433 289.750 L 30.856 295 24.042 295 C 10.457 295, 1.115 303.268, 0.186 316.112 C -0.381 323.946, 1.840 329.676, 7.448 334.845 C 12.438 339.445, 16.983 340.987, 25.580 340.994 L 31.659 341 36.917 378.250 C 39.809 398.738, 42.768 417.863, 43.493 420.750 C 46.274 431.833, 53.781 440.798, 64.842 446.243 L 71.457 449.500 112.478 449.500 L 153.500 449.500 159 446.401 C 165.526 442.724, 171.323 435.584, 173.047 429.099 C 174.962 421.898, 176.516 420, 180.500 420 C 184.430 420, 186.185 422.021, 187.894 428.515 C 190.359 437.881, 198.749 446.446, 207.965 449.007 C 210.019 449.577, 229.124 449.991, 253.568 449.994 C 301.276 450.001, 302.481 449.850, 310.401 442.878 C 315.105 438.737, 320 430.726, 320 427.168 C 320 423.690, 323.835 420, 327.450 420 C 331.481 420, 332.226 420.883, 334.554 428.423 C 336.630 435.147, 341.006 441.414, 345.954 444.748 C 351.908 448.761, 358.301 450, 373.047 450 C 385.376 450, 386.991 449.795, 389.365 447.927 C 392.809 445.218, 392.957 440.248, 389.686 437.174 C 387.566 435.183, 386.323 435, 374.936 434.994 C 368.096 434.991, 360.899 434.544, 358.943 434.001 C 354.210 432.686, 350.435 428.507, 349.005 423 C 345.910 411.081, 338.443 404.665, 327.607 404.613 C 316.748 404.561, 308.806 410.981, 305.450 422.523 C 304.627 425.356, 303 428.696, 301.835 429.947 C 297.281 434.835, 295.726 435, 254.276 435 C 232.040 435, 214.034 434.583, 212.083 434.024 C 207.006 432.568, 204.310 429.441, 201.908 422.224 C 198.362 411.569, 189.479 404.011, 180.500 404.011 C 171.521 404.011, 162.638 411.569, 159.092 422.224 C 156.813 429.073, 154.318 432.178, 149.685 433.933 C 145.842 435.389, 82.812 435.368, 76.006 433.908 C 73.171 433.300, 69.074 431.412, 66.762 429.649 C 59.374 424.014, 58.633 421.419, 53.023 381.500 C 50.240 361.700, 47.738 344.488, 47.463 343.250 L 46.962 341 255.481 341 C 383.371 341, 464 341.360, 464 341.930 C 464 346.454, 449.438 418.418, 447.848 421.751 C 443.680 430.490, 434.662 435, 421.357 435 C 415.157 435, 413.776 435.324, 412.039 437.189 C 408.903 440.555, 409.005 444.235, 412.337 447.844 C 414.399 450.078, 415.015 450.171, 425.500 449.827 C 435.351 449.504, 437.200 449.136, 443.201 446.309 C 446.886 444.572, 451.921 441.132, 454.390 438.663 C 462.437 430.615, 463.553 427.206, 471.115 387.544 C 474.895 367.720, 478.473 349.137, 479.065 346.250 L 480.142 341 486.321 340.994 C 494.828 340.987, 499.446 339.495, 504.166 335.231 C 509.672 330.256, 513 323.067, 513 316.146 C 513 313.132, 512.732 310.935, 512.404 311.263 C 512.076 311.591, 510.593 309.535, 509.109 306.695 C 505.109 299.037, 499.093 295.611, 488.828 295.144 C 484.523 294.948, 480.979 294.723, 480.954 294.644 C 480.929 294.565, 477.833 249.050, 474.074 193.500 C 467.843 101.428, 467.044 91.989, 465.035 86.715 C 461.967 78.664, 453.736 69.980, 445.180 65.768 L 438.543 62.500 308.521 62.218 C 237.010 62.064, 177.496 62.183, 176.268 62.483 C 172.875 63.313, 170.784 68.082, 172.126 71.931 C 172.722 73.642, 174.033 75.483, 175.039 76.021 C 176.205 76.645, 222.900 77, 303.753 77 C 442.959 77, 436.616 76.730, 444.160 82.970 C 452.006 89.460, 451.590 86.706, 457.059 168.211 C 459.764 208.520, 461.973 241.950, 461.967 242.500 C 461.962 243.050, 459.493 238.818, 456.482 233.096 C 453.471 227.374, 449.165 220.252, 446.914 217.270 L 442.820 211.848 438.944 161.793 C 436.813 134.263, 434.556 110.184, 433.929 108.283 C 432.362 103.536, 427.315 98.049, 422.509 95.865 C 418.684 94.127, 411.043 94.044, 256 94.044 C 100.957 94.044, 93.316 94.127, 89.491 95.865 C 84.685 98.049, 79.638 103.536, 78.071 108.283 C 77.444 110.184, 75.187 134.263, 73.056 161.793 L 69.180 211.848 65.086 217.270 C 62.835 220.252, 58.529 227.374, 55.518 233.096 C 52.507 238.818, 50.038 243.050, 50.033 242.500 C 50.027 241.950, 52.236 208.520, 54.941 168.211 C 60.410 86.706, 59.994 89.460, 67.840 82.970 C 74.562 77.410, 77.840 77, 115.609 77 L 149.855 77 151.927 74.365 C 154.828 70.678, 154.606 66.622, 151.365 64.073 C 148.808 62.061, 147.685 62.002, 113.115 62.067 C 88.229 62.115, 76.123 62.506, 72.929 63.367 M 96.465 108.952 C 91.998 110.762, 91.833 111.705, 88.525 154.265 C 86.762 176.944, 85.478 195.693, 85.671 195.928 C 85.864 196.163, 87.705 195.419, 89.761 194.274 C 95.617 191.014, 103.757 189, 111.076 189 C 138.462 189, 162.928 215.192, 179.005 261.720 L 183.584 274.972 186.919 264.736 C 199.828 225.121, 220.714 197.778, 243.369 190.837 C 251.509 188.343, 263.632 188.654, 271 191.545 C 284.402 196.804, 302.983 214.235, 302.996 221.561 C 303.002 224.761, 299.368 228, 295.772 228 C 293.114 228, 291.288 226.608, 284.061 219.071 C 277.511 212.240, 273.973 209.421, 269 207.072 C 245.029 195.748, 220.800 216.236, 203.547 262.418 C 200.768 269.856, 194.062 292.584, 194.006 294.750 C 194.003 294.887, 221.930 295, 256.067 295 C 314.710 295, 318.106 294.903, 317.617 293.250 C 317.331 292.287, 316.181 287.842, 315.059 283.372 C 313.937 278.901, 311.408 270.801, 309.439 265.372 C 303.489 248.969, 303.404 248.558, 305.333 245.615 C 307.380 242.490, 311.266 241.345, 314.626 242.875 C 317.418 244.148, 318.604 246.601, 324.440 263.181 L 328.551 274.862 332.937 261.847 C 345.668 224.063, 366.052 197.758, 387.855 190.977 C 399.261 187.429, 412.731 188.836, 422.738 194.621 L 426.977 197.071 426.423 191.285 C 426.119 188.103, 424.610 169.149, 423.071 149.164 C 420.457 115.229, 420.128 112.684, 418.109 110.664 C 415.951 108.506, 415.802 108.499, 361.704 108.225 L 307.463 107.951 300.981 121.117 C 297.417 128.359, 293.680 135.345, 292.677 136.642 L 290.855 139 256 139 L 221.145 139 219.323 136.642 C 218.320 135.345, 214.589 128.370, 211.031 121.142 L 204.561 108 151.531 108.063 C 122.364 108.098, 97.584 108.498, 96.465 108.952 M 222 108.483 C 222 108.749, 223.674 112.349, 225.719 116.483 L 229.439 124 256 124 L 282.561 124 286.281 116.483 C 288.326 112.349, 290 108.749, 290 108.483 C 290 108.218, 274.700 108, 256 108 C 237.300 108, 222 108.218, 222 108.483 M 98.307 206.977 C 90.400 210.963, 79.324 222.608, 72.569 234.037 C 64.006 248.526, 54.453 272.352, 50.633 288.750 L 49.177 295 111.156 295 C 169.714 295, 173.106 294.903, 172.617 293.250 C 172.331 292.288, 171.182 287.848, 170.062 283.384 C 165.310 264.445, 156.302 242.926, 147.497 229.483 C 142.064 221.186, 130.486 209.841, 124.500 206.948 C 120.927 205.221, 117.359 204.435, 112 204.193 C 105.230 203.888, 103.898 204.159, 98.307 206.977 M 388.220 206.972 C 369.705 215.732, 351.279 246.153, 341.938 283.384 C 340.818 287.848, 339.669 292.288, 339.383 293.250 C 338.894 294.903, 342.287 295, 400.860 295 L 462.856 295 460.501 286.250 C 452.476 256.424, 439.389 230.713, 424.852 216.216 C 412.469 203.866, 400.937 200.956, 388.220 206.972 M 17.455 312.455 C 13.513 316.396, 14.270 322.054, 19.072 324.537 C 23.350 326.750, 488.650 326.750, 492.928 324.537 C 497.730 322.054, 498.487 316.396, 494.545 312.455 L 492.091 310 256 310 L 19.909 310 17.455 312.455 M 0.320 318 C 0.320 321.575, 0.502 323.038, 0.723 321.250 C 0.945 319.462, 0.945 316.538, 0.723 314.750 C 0.502 312.962, 0.320 314.425, 0.320 318" stroke="none" fill="#060505" fill-rule="evenodd"/></svg>