<svg xmlns="http://www.w3.org/2000/svg" width="512" height="512" viewBox="0 0 512 512" version="1.1"><path d="M 104 363.500 C 104 364.325, 103.100 365.900, 102 367 C 100.121 368.879, 98.667 369, 78 369 C 65.900 369, 56 369.155, 56 369.343 C 56 372.535, 65.106 393.541, 71.348 404.750 L 76.500 413.999 255.772 414 L 435.044 414 438.095 409.250 C 443.447 400.916, 456 373.007, 456 369.440 C 456 369.198, 382.278 369, 292.174 369 L 128.349 369 126.174 366.686 C 124.978 365.413, 124 363.838, 124 363.186 C 124 362.351, 121.043 362, 114 362 C 105.778 362, 104 362.267, 104 363.500" stroke="none" fill="#6bd9e7" fill-rule="evenodd"/><path d="M 45.444 292.682 C 44.143 304.831, 46.382 331.379, 50.173 348.750 L 51.318 354 75.024 354 C 97.493 354, 98.868 354.108, 101.365 356.073 C 102.814 357.212, 104 358.787, 104 359.573 C 104 360.714, 106.004 361, 114 361 C 121.996 361, 124 360.714, 124 359.573 C 124 358.787, 125.186 357.212, 126.635 356.073 L 129.270 354 295.021 354 L 460.773 354 462.917 342.750 C 465.674 328.286, 467.505 303.679, 466.564 293.750 L 465.829 286 255.994 286 L 46.159 286 45.444 292.682 M 91.684 435.180 C 108.531 456.798, 134.492 477.673, 161.235 491.106 L 172.969 497 231.262 497 C 294.566 497, 292.996 496.864, 294.405 502.477 C 295.026 504.952, 295.217 505, 304.519 505 C 311.864 505, 314 504.692, 314 503.635 C 314 502.884, 314.933 501.084, 316.073 499.635 C 318.075 497.089, 318.498 497, 328.588 497 L 339.031 497 350.765 491.106 C 377.342 477.757, 403.160 456.979, 420.316 435.133 L 425.133 429 256 429 L 86.867 429 91.684 435.180" stroke="none" fill="#fea713" fill-rule="evenodd"/><path d="M 370.250 162.716 C 371.762 162.945, 374.238 162.945, 375.750 162.716 C 377.262 162.487, 376.025 162.300, 373 162.300 C 369.975 162.300, 368.738 162.487, 370.250 162.716 M 98.437 168.250 L 95.500 171.500 98.750 168.563 C 101.779 165.825, 102.460 165, 101.687 165 C 101.515 165, 100.052 166.463, 98.437 168.250 M 421.428 166.543 C 420.834 166.823, 422.123 168.906, 424.320 171.216 C 426.500 173.508, 429.683 178.334, 431.392 181.942 C 434.225 187.919, 434.500 189.385, 434.500 198.500 C 434.500 207.807, 434.262 209.009, 431.058 215.846 C 426.939 224.636, 426.703 229.598, 429.958 239 C 432.814 247.249, 432.497 258.937, 429.218 266.283 L 427.083 271.067 437.791 270.783 L 448.500 270.500 451.417 264.664 C 453.856 259.783, 454.333 257.607, 454.333 251.378 C 454.333 244.570, 453.965 243.213, 450.054 235.606 C 445.280 226.320, 445.288 225.016, 450.155 218.830 C 458.063 208.777, 459.824 195.544, 454.675 184.857 C 451.543 178.356, 444.773 171.672, 438.519 168.905 C 434.272 167.027, 423.546 165.544, 421.428 166.543 M 211.500 188 C 213.648 190.200, 215.631 192, 215.906 192 C 216.181 192, 214.648 190.200, 212.500 188 C 210.352 185.800, 208.369 184, 208.094 184 C 207.819 184, 209.352 185.800, 211.500 188 M 318.437 220.250 L 315.500 223.500 318.750 220.563 C 321.779 217.825, 322.460 217, 321.687 217 C 321.515 217, 320.052 218.463, 318.437 220.250 M 310.286 241.500 C 310.294 244.250, 310.488 245.256, 310.718 243.736 C 310.947 242.216, 310.941 239.966, 310.704 238.736 C 310.467 237.506, 310.279 238.750, 310.286 241.500 M 66.232 254 C 66.232 255.925, 66.438 256.712, 66.689 255.750 C 66.941 254.787, 66.941 253.213, 66.689 252.250 C 66.438 251.287, 66.232 252.075, 66.232 254 M 188.232 260 C 188.232 261.925, 188.438 262.712, 188.689 261.750 C 188.941 260.788, 188.941 259.212, 188.689 258.250 C 188.438 257.288, 188.232 258.075, 188.232 260 M 332.694 268.532 C 331.151 269.889, 330.285 271, 330.770 271 C 331.255 271, 332.708 269.875, 334 268.500 C 336.989 265.319, 336.328 265.335, 332.694 268.532" stroke="none" fill="#68ca44" fill-rule="evenodd"/><path d="M 114.224 158.971 C 106.818 161.636, 102.778 164.340, 97.597 170.103 C 89.283 179.351, 86.441 191.604, 89.501 205.006 C 91.759 214.889, 90.865 217.595, 83.855 222.093 C 77.981 225.863, 72.881 231.831, 69.769 238.580 C 67.875 242.686, 67.508 245.155, 67.545 253.500 C 67.578 260.753, 68.063 264.530, 69.309 267.250 L 71.027 271 112.013 271 C 134.556 271, 153 270.705, 153 270.345 C 153 269.985, 146.700 256.427, 139 240.218 C 131.300 224.008, 125 209.657, 125 208.327 C 125 202.878, 132.929 199.034, 137.410 202.311 C 138.396 203.032, 146.350 218.669, 155.086 237.061 L 170.969 270.500 179.734 270.785 L 188.500 271.069 188.145 265.908 C 187.394 254.986, 191.509 242.646, 199.068 233.153 C 203.608 227.450, 213.215 220.615, 219.219 218.816 L 223.243 217.611 222.745 211.416 C 222.110 203.501, 218.425 195.438, 212.594 189.204 C 206.693 182.895, 200.019 179.340, 191.260 177.838 C 184.952 176.756, 183.342 176.845, 176.103 178.676 C 171.649 179.802, 166.852 180.503, 165.443 180.234 C 163.799 179.920, 160.962 177.338, 157.524 173.030 C 151.675 165.700, 144.642 160.599, 137.360 158.408 C 130.817 156.439, 120.567 156.688, 114.224 158.971 M 362.500 164.328 C 353.302 167.935, 347.293 173.928, 343.969 182.811 C 342.359 187.114, 341.984 190.148, 342.211 197.030 C 342.540 207.005, 341.520 209.031, 335.129 211.099 C 323.965 214.711, 315.534 222.051, 312.575 230.734 C 310.553 236.667, 310.561 246.355, 312.592 252.316 C 314.586 258.168, 321.579 266.056, 326.903 268.456 L 330.953 270.283 336.227 265.764 C 339.127 263.279, 357.250 247.463, 376.500 230.616 C 395.750 213.770, 412.576 199.700, 413.890 199.350 C 419.726 197.794, 425.336 203.268, 423.455 208.682 C 422.644 211.014, 388.502 241.931, 358.500 267.501 L 354.500 270.910 390.806 270.955 L 427.112 271 429.233 266.250 C 432.496 258.939, 432.808 247.232, 429.958 239 C 426.703 229.598, 426.939 224.636, 431.058 215.846 C 434.262 209.009, 434.500 207.807, 434.500 198.500 C 434.500 189.695, 434.173 187.803, 431.766 182.664 C 428.677 176.070, 423.792 169.494, 420.789 167.887 C 419.152 167.011, 417.405 167.484, 411.497 170.404 C 401.914 175.140, 399.062 175.063, 392.351 169.885 C 389.418 167.622, 385.326 165.167, 383.259 164.429 C 378.656 162.787, 366.582 162.728, 362.500 164.328" stroke="none" fill="#80d261" fill-rule="evenodd"/><path d="M 200.500 69.338 C 194.160 71.439, 190.805 73.526, 186.298 78.170 C 179.824 84.841, 177.521 90.823, 177.510 101 C 177.501 108.881, 177.760 109.973, 181.079 116 C 193.904 139.295, 227.569 138.422, 238.920 114.500 C 242.439 107.085, 242.843 97.212, 239.943 89.525 C 237.050 81.860, 229.756 74.005, 222.702 70.958 C 216.393 68.234, 206.100 67.483, 200.500 69.338 M 308.197 149.504 C 301.335 151.422, 299.628 152.380, 294.266 157.322 C 287.814 163.269, 284.768 169.855, 284.238 179 C 283.893 184.974, 284.238 187.649, 285.935 192.147 C 288.586 199.169, 294.804 206.362, 300.877 209.430 L 305.500 211.766 310.853 206.961 C 313.798 204.318, 318.628 201.108, 321.586 199.828 L 326.966 197.500 326.983 191.218 C 327.010 181.392, 330.438 172.462, 337.686 163.336 L 340.993 159.172 337.747 156.426 C 329.682 149.606, 317.796 146.821, 308.197 149.504 M 228.500 231.876 C 212.598 236.097, 202.437 250.655, 203.810 267.250 L 204.121 271 235.999 271 L 267.877 271 268.507 266.750 C 270.290 254.710, 262.257 240.388, 250.487 234.625 C 244.463 231.676, 234.124 230.383, 228.500 231.876 M 45.232 289 C 45.232 290.925, 45.438 291.712, 45.689 290.750 C 45.941 289.788, 45.941 288.212, 45.689 287.250 C 45.438 286.288, 45.232 287.075, 45.232 289 M 466.232 290 C 466.232 291.925, 466.438 292.712, 466.689 291.750 C 466.941 290.788, 466.941 289.212, 466.689 288.250 C 466.438 287.288, 466.232 288.075, 466.232 290 M 466.232 316 C 466.232 317.925, 466.438 318.712, 466.689 317.750 C 466.941 316.788, 466.941 315.212, 466.689 314.250 C 466.438 313.288, 466.232 314.075, 466.232 316 M 45.232 317 C 45.232 318.925, 45.438 319.712, 45.689 318.750 C 45.941 317.788, 45.941 316.212, 45.689 315.250 C 45.438 314.288, 45.232 315.075, 45.232 317 M 411.437 445.250 L 408.500 448.500 411.750 445.563 C 414.779 442.825, 415.460 442, 414.687 442 C 414.515 442, 413.052 443.462, 411.437 445.250" stroke="none" fill="#fd6930" fill-rule="evenodd"/><path d="M 320.176 16.014 C 298.451 20.571, 283.612 42.365, 287.964 63.325 C 289.599 71.204, 294.124 79.729, 299.434 84.938 C 301.922 87.378, 304.153 89.178, 304.391 88.938 C 304.628 88.697, 304.363 86.025, 303.800 83 C 301.489 70.570, 304.805 54.212, 311.867 43.207 C 318.166 33.391, 331.616 23.019, 342 19.971 C 344.467 19.247, 344.452 19.216, 340.881 17.660 C 336.305 15.665, 325.813 14.831, 320.176 16.014 M 380.930 94.658 C 385.691 100.066, 390.454 109.263, 392.525 117.045 C 394.418 124.161, 394.395 137.063, 392.476 144.432 C 391.637 147.651, 391.075 150.349, 391.226 150.428 C 391.377 150.507, 393.889 152.016, 396.809 153.781 C 401.831 156.817, 402.272 156.911, 404.979 155.511 C 408.603 153.637, 412.487 145.611, 414.014 136.841 C 417.506 116.791, 404.192 96.864, 383.650 91.395 C 376.394 89.463, 376.376 89.485, 380.930 94.658 M 84 110.573 C 96.874 119.510, 104.934 128.813, 108.576 138.940 C 110.218 143.506, 110.492 143.763, 112.793 142.889 C 114.146 142.374, 118.572 141.673, 122.627 141.330 C 131.369 140.591, 131.488 140.296, 126.818 130.951 C 122.807 122.925, 116.936 117.021, 108.832 112.863 C 103.120 109.933, 101.473 109.577, 92 109.226 C 81.793 108.849, 81.570 108.886, 84 110.573" stroke="none" fill="#fff2e2" fill-rule="evenodd"/><path d="M 313.124 1.518 C 303.830 4.121, 294.667 9.649, 287.723 16.841 C 276.992 27.957, 271.836 40.627, 271.887 55.752 C 271.941 71.958, 276.942 83.969, 288.470 95.583 C 299.493 106.688, 311.572 111.708, 318.435 108.035 C 324.550 104.762, 325.809 97.929, 321.849 89.500 C 319.829 85.200, 319.500 82.959, 319.500 73.500 C 319.500 63.481, 319.749 61.992, 322.295 56.808 C 328.487 44.200, 339.306 36.159, 353.719 33.456 C 360.090 32.261, 361.998 31.450, 364.250 28.983 C 367.288 25.653, 367.936 20.148, 365.833 15.534 C 364.311 12.191, 355.223 6.212, 347.015 3.152 C 338.645 0.032, 321.399 -0.800, 313.124 1.518 M 317.746 16.029 C 306.489 18.853, 295.914 27.739, 290.693 38.759 C 287.732 45.011, 287.500 46.264, 287.500 56.021 C 287.500 65.984, 287.682 66.912, 290.932 73.513 C 294.031 79.808, 302.719 90, 304.986 90 C 305.455 90, 305.357 88.312, 304.769 86.250 C 303.079 80.324, 303.434 65.319, 305.425 58.500 C 310.499 41.126, 322.112 28.609, 339.840 21.403 L 345.495 19.105 341.498 17.394 C 336.853 15.407, 323.324 14.629, 317.746 16.029 M 197.754 54.023 C 187.248 56.671, 175.045 65.545, 169.119 74.848 C 159.834 89.423, 159.497 110.900, 168.327 125.360 C 178.143 141.436, 198.015 150.803, 216.434 148.035 C 239.880 144.512, 257.091 124.612, 257.114 101 C 257.133 81.370, 247.222 65.756, 229.357 57.272 C 222.411 53.973, 220.878 53.636, 211.627 53.370 C 206.057 53.210, 199.814 53.504, 197.754 54.023 M 200.500 69.338 C 194.160 71.439, 190.805 73.526, 186.298 78.170 C 179.824 84.841, 177.521 90.823, 177.510 101 C 177.501 108.881, 177.760 109.973, 181.079 116 C 193.904 139.295, 227.569 138.422, 238.920 114.500 C 242.439 107.085, 242.843 97.212, 239.943 89.525 C 237.050 81.860, 229.756 74.005, 222.702 70.958 C 216.393 68.234, 206.100 67.483, 200.500 69.338 M 366.500 74.878 C 358.632 76.317, 355 80.330, 355 87.586 C 355 90.903, 355.846 92.084, 363.451 99.386 C 375.907 111.346, 380.232 122.531, 377.941 136.867 C 376.461 146.136, 375.807 147, 370.280 147 C 367.723 147, 363.035 147.728, 359.863 148.619 L 354.094 150.237 348.912 145.704 C 329.492 128.716, 302.864 128.734, 283.937 145.748 C 263.910 163.750, 263.252 195.225, 282.500 214.494 C 285.800 217.797, 290.571 221.589, 293.101 222.919 L 297.702 225.339 296.351 229.828 C 293.166 240.411, 295.598 256.251, 301.942 266.250 L 304.956 271 294.478 271 L 284 271 284 264.228 C 284 256.069, 281.364 246.009, 277.489 239.377 C 271.004 228.279, 258.021 219.157, 245.255 216.731 L 239.188 215.578 238.538 209.506 C 236.142 187.136, 219.695 168.238, 198 162.928 C 192.034 161.467, 178.249 161.353, 173.620 162.726 C 170.984 163.507, 170.289 163.106, 165.392 157.972 C 162.450 154.888, 157.153 150.674, 153.621 148.608 L 147.199 144.853 145.953 138.249 C 145.267 134.617, 142.942 128.119, 140.785 123.810 C 129.557 101.378, 103.443 88.874, 78.799 94.130 C 62.693 97.565, 56.047 104.974, 60.553 114.470 C 62.082 117.694, 63.085 118.357, 74.007 123.378 C 82.696 127.372, 90.419 135.849, 94.252 145.599 L 95.863 149.699 88.613 157.099 C 76.251 169.717, 70.634 185.337, 72.736 201.254 L 73.760 209.014 66.608 216.257 C 59.004 223.958, 55.087 230.729, 52.508 240.631 C 50.636 247.819, 50.568 258.897, 52.354 265.782 L 53.707 271 47.104 271.004 C 38.714 271.008, 34.646 273.284, 31.890 279.516 C 30.159 283.429, 29.915 286.232, 29.916 302.240 C 29.916 323.418, 31.689 339.094, 36.099 356.913 C 52.220 422.052, 94.952 475.567, 154.852 505.631 L 167.500 511.980 228.639 511.990 C 286.479 511.999, 289.901 511.901, 292.046 510.164 C 295.250 507.569, 294.986 502.245, 291.504 499.250 L 288.888 497 230.369 497 L 171.849 497 160.153 491.037 C 134.679 478.050, 112.559 460.433, 94.186 438.500 L 86.647 429.500 171.323 429.244 C 217.896 429.104, 294.104 429.104, 340.677 429.244 L 425.353 429.500 417.843 438.500 C 399.347 460.667, 376.438 478.733, 350.003 491.998 L 340.036 497 329.518 497 C 320.378 497, 318.741 497.259, 317.025 498.975 C 313.911 502.089, 313.428 505.756, 315.726 508.837 C 317.680 511.458, 317.921 511.504, 330.935 511.780 L 344.159 512.059 356.450 505.985 C 418.311 475.416, 463.315 417.523, 477.333 350.483 C 481.001 332.943, 482.090 321.756, 482.077 301.770 C 482.066 286.233, 481.812 283.362, 480.100 279.494 C 477.907 274.536, 473.149 271.010, 468.643 271.004 C 466.309 271.001, 465.921 270.680, 466.523 269.250 C 471.240 258.042, 470.859 243.026, 465.574 231.831 L 463.369 227.162 466.652 221.831 C 480.111 199.977, 471.067 168.311, 448 156.523 C 442.464 153.694, 433.596 151, 429.818 151 C 428.268 151, 427.005 150.887, 427.012 150.750 C 427.018 150.613, 427.688 148.025, 428.500 145 C 430.420 137.845, 430.405 123.976, 428.469 116.542 C 423.663 98.089, 408.014 82.163, 389.284 76.660 C 382.832 74.765, 371.827 73.904, 366.500 74.878 M 380.938 95.040 C 385.710 101.078, 388.860 106.973, 391.603 115 C 393.966 121.916, 394.058 139.131, 391.769 146.155 L 390.253 150.810 394.132 152.560 C 396.266 153.522, 398.514 154.914, 399.128 155.654 C 402.686 159.942, 409.565 153.684, 412.984 143.049 C 417.641 128.567, 413.807 112.712, 403.048 101.952 C 397.527 96.432, 388.160 91.494, 381.108 90.388 L 376.715 89.699 380.938 95.040 M 83.211 108.648 C 81.187 109.091, 81.593 109.586, 86.711 112.911 C 96.023 118.962, 104.220 128.959, 108.105 139 C 109.390 142.323, 110.323 143.425, 111.673 143.214 C 112.678 143.056, 117.470 142.654, 122.323 142.321 L 131.145 141.714 130.535 139.107 C 129.134 133.118, 123.778 124.066, 118.982 119.580 C 111.578 112.654, 102.854 108.890, 93.249 108.479 C 88.987 108.296, 84.470 108.372, 83.211 108.648 M 308.197 149.504 C 301.335 151.422, 299.628 152.380, 294.266 157.322 C 287.814 163.269, 284.768 169.855, 284.238 179 C 283.893 184.974, 284.238 187.649, 285.935 192.147 C 288.586 199.169, 294.804 206.362, 300.877 209.430 L 305.500 211.766 310.853 206.961 C 313.798 204.318, 318.628 201.108, 321.586 199.828 L 326.966 197.500 326.983 191.218 C 327.010 181.392, 330.438 172.462, 337.686 163.336 L 340.993 159.172 337.747 156.426 C 329.682 149.606, 317.796 146.821, 308.197 149.504 M 119.650 157.029 C 108.066 159.020, 96.802 167.574, 91.503 178.405 C 87.886 185.797, 86.978 197.404, 89.319 206.320 C 91.398 214.241, 90.355 216.768, 82.673 222.422 C 76.011 227.327, 71.017 233.847, 68.443 241 C 66.190 247.261, 66.158 259.218, 68.377 265.750 L 70.161 271 112.068 271 L 153.975 271 151.600 265.750 C 150.295 262.863, 144.175 249.925, 138.002 237 C 131.828 224.075, 126.357 212.405, 125.844 211.066 C 123.716 205.520, 130.129 199.371, 135.492 201.814 C 138.712 203.281, 138.559 202.997, 155.588 239.206 L 170.500 270.911 179.645 270.956 L 188.790 271 188.843 263.250 C 188.971 244.394, 199.108 228.643, 216.225 220.702 L 223.127 217.500 222.775 211 C 222.092 198.377, 214.154 186.662, 202.342 180.848 C 193.989 176.736, 184.174 175.931, 174.133 178.535 C 165.389 180.803, 162.819 179.898, 157.593 172.707 C 148.701 160.469, 134.289 154.514, 119.650 157.029 M 365.500 162.871 C 356.736 165.164, 348.978 171.298, 344.836 179.209 C 343.006 182.704, 342.516 185.546, 342.194 194.528 C 341.941 201.569, 341.316 206.215, 340.464 207.380 C 339.730 208.384, 336.412 210.189, 333.091 211.391 C 320.720 215.871, 313.223 223.791, 310.939 234.795 C 308.120 248.371, 314.166 261.963, 325.853 268.323 L 330.916 271.079 371.649 235.511 C 394.052 215.948, 413.424 199.681, 414.698 199.361 C 417.624 198.627, 421.767 201.257, 423.066 204.673 C 423.817 206.648, 423.633 207.899, 422.271 210.081 C 420.939 212.216, 387.226 242.159, 354.073 270.653 C 353.839 270.855, 374.989 270.903, 401.073 270.760 L 448.500 270.500 451.417 264.664 C 453.856 259.783, 454.333 257.607, 454.333 251.378 C 454.333 244.570, 453.965 243.213, 450.054 235.606 C 445.280 226.320, 445.288 225.016, 450.155 218.830 C 458.063 208.777, 459.824 195.544, 454.675 184.857 C 449.103 173.293, 438.606 166.623, 425.882 166.563 C 419.027 166.530, 417.525 166.901, 410.882 170.268 C 406.822 172.325, 402.305 174.007, 400.845 174.004 C 399.254 174.002, 396.448 172.536, 393.845 170.348 C 391.455 168.340, 387.503 165.806, 385.061 164.718 C 380.229 162.564, 370.270 161.624, 365.500 162.871 M 228.500 231.876 C 212.598 236.097, 202.437 250.655, 203.810 267.250 L 204.121 271 235.999 271 L 267.877 271 268.507 266.750 C 270.290 254.710, 262.257 240.388, 250.487 234.625 C 244.463 231.676, 234.124 230.383, 228.500 231.876 M 45.008 301.248 C 45.018 320.049, 47.267 340.472, 50.618 352.201 C 51.055 353.731, 53.555 353.931, 75.642 354.201 C 100.057 354.499, 100.189 354.512, 102.090 356.861 C 104.565 359.920, 104.511 363.081, 101.927 366.365 L 99.855 369 77.927 369 C 62.951 369, 56 369.341, 56 370.075 C 56 372.528, 64.422 392.269, 69.833 402.500 L 75.650 413.500 255.783 413.753 L 435.915 414.005 440.946 404.753 C 446.098 395.279, 454.325 376.673, 455.539 371.750 L 456.217 369 292.181 369 L 128.145 369 126.073 366.365 C 123.489 363.080, 123.435 359.919, 125.912 356.861 L 127.823 354.500 294.308 354.241 C 434.720 354.023, 460.876 353.767, 461.322 352.603 C 461.613 351.845, 462.855 345.436, 464.082 338.362 C 465.836 328.246, 466.332 321.337, 466.406 306 L 466.500 286.500 255.750 286.248 L 45 285.995 45.008 301.248" stroke="none" fill="#060a0a" fill-rule="evenodd"/><path d="M 298.437 27.250 L 295.500 30.500 298.750 27.563 C 300.538 25.948, 302 24.485, 302 24.313 C 302 23.540, 301.175 24.221, 298.437 27.250 M 400 99.313 C 400 99.485, 401.462 100.948, 403.250 102.563 L 406.500 105.500 403.563 102.250 C 400.825 99.221, 400 98.540, 400 99.313 M 87.750 108.723 C 89.537 108.945, 92.463 108.945, 94.250 108.723 C 96.037 108.502, 94.575 108.320, 91 108.320 C 87.425 108.320, 85.963 108.502, 87.750 108.723 M 130 139.948 C 130 140.469, 127.638 141.061, 124.750 141.263 L 119.500 141.630 125.250 141.815 C 129.777 141.961, 131 141.681, 131 140.500 C 131 139.675, 130.775 139, 130.500 139 C 130.225 139, 130 139.426, 130 139.948 M 108.750 361.737 C 111.638 361.939, 116.362 361.939, 119.250 361.737 C 122.138 361.535, 119.775 361.370, 114 361.370 C 108.225 361.370, 105.862 361.535, 108.750 361.737" stroke="none" fill="#c6b44f" fill-rule="evenodd"/></svg>